<mxfile host="app.diagrams.net" modified="2022-03-18T02:00:05.448Z" agent="5.0 (Windows NT 10.0; Win64; x64) AppleWebKit/537.36 (KHTML, like Gecko) Chrome/99.0.4844.74 Safari/537.36" etag="UPJHvJRlRT4iHR9YhbeY" version="17.1.3" type="github">
  <diagram id="gUSLVDpzWc-BB7jZG1F3" name="Page-1">
    <mxGraphModel dx="1422" dy="794" grid="1" gridSize="10" guides="1" tooltips="1" connect="1" arrows="1" fold="1" page="1" pageScale="1" pageWidth="850" pageHeight="1100" math="0" shadow="0">
      <root>
        <mxCell id="0" />
        <mxCell id="1" parent="0" />
        <mxCell id="dmopaePBWKafwO8ApIk7-3" value="" style="whiteSpace=wrap;html=1;aspect=fixed;" parent="1" vertex="1">
          <mxGeometry x="92.5" y="280" width="950" height="950" as="geometry" />
        </mxCell>
        <mxCell id="dmopaePBWKafwO8ApIk7-4" value="" style="rounded=0;whiteSpace=wrap;html=1;" parent="1" vertex="1">
          <mxGeometry x="190" y="270" width="770" height="20" as="geometry" />
        </mxCell>
        <mxCell id="dmopaePBWKafwO8ApIk7-6" value="" style="rounded=0;whiteSpace=wrap;html=1;" parent="1" vertex="1">
          <mxGeometry x="110" y="330" width="920" height="870" as="geometry" />
        </mxCell>
        <mxCell id="dmopaePBWKafwO8ApIk7-7" value="" style="rounded=1;whiteSpace=wrap;html=1;" parent="1" vertex="1">
          <mxGeometry x="120" y="350" width="440" height="810" as="geometry" />
        </mxCell>
        <mxCell id="dmopaePBWKafwO8ApIk7-27" style="edgeStyle=orthogonalEdgeStyle;rounded=0;orthogonalLoop=1;jettySize=auto;html=1;exitX=1;exitY=0.5;exitDx=0;exitDy=0;" parent="1" source="dmopaePBWKafwO8ApIk7-13" target="dmopaePBWKafwO8ApIk7-3" edge="1">
          <mxGeometry relative="1" as="geometry">
            <Array as="points">
              <mxPoint x="630" y="320" />
              <mxPoint x="630" y="320" />
            </Array>
          </mxGeometry>
        </mxCell>
        <mxCell id="dmopaePBWKafwO8ApIk7-13" value="Pizza menu" style="text;html=1;strokeColor=none;fillColor=none;align=center;verticalAlign=middle;whiteSpace=wrap;rounded=0;" parent="1" vertex="1">
          <mxGeometry x="530" y="290" width="90" height="30" as="geometry" />
        </mxCell>
        <mxCell id="dmopaePBWKafwO8ApIk7-14" value="" style="rounded=0;whiteSpace=wrap;html=1;" parent="1" vertex="1">
          <mxGeometry x="580" y="360" width="140" height="800" as="geometry" />
        </mxCell>
        <mxCell id="dmopaePBWKafwO8ApIk7-15" value="quantity" style="text;html=1;strokeColor=none;fillColor=none;align=center;verticalAlign=middle;whiteSpace=wrap;rounded=0;" parent="1" vertex="1">
          <mxGeometry x="620" y="352.5" width="60" height="30" as="geometry" />
        </mxCell>
        <mxCell id="dmopaePBWKafwO8ApIk7-31" value="regular pizza" style="text;html=1;strokeColor=none;fillColor=none;align=center;verticalAlign=middle;whiteSpace=wrap;rounded=0;" parent="1" vertex="1">
          <mxGeometry x="240" y="430" width="200" height="30" as="geometry" />
        </mxCell>
        <mxCell id="DCh-fhXpe_uqELfjKVjP-2" value="" style="rounded=0;whiteSpace=wrap;html=1;" vertex="1" parent="1">
          <mxGeometry x="770" y="352.5" width="230" height="677.5" as="geometry" />
        </mxCell>
        <mxCell id="DCh-fhXpe_uqELfjKVjP-3" value="info" style="text;html=1;strokeColor=none;fillColor=none;align=center;verticalAlign=middle;whiteSpace=wrap;rounded=0;" vertex="1" parent="1">
          <mxGeometry x="855" y="352.5" width="60" height="30" as="geometry" />
        </mxCell>
        <mxCell id="DCh-fhXpe_uqELfjKVjP-4" value="name" style="text;html=1;strokeColor=none;fillColor=none;align=center;verticalAlign=middle;whiteSpace=wrap;rounded=0;" vertex="1" parent="1">
          <mxGeometry x="780" y="470" width="60" height="30" as="geometry" />
        </mxCell>
        <mxCell id="DCh-fhXpe_uqELfjKVjP-5" value="phone no." style="text;html=1;strokeColor=none;fillColor=none;align=center;verticalAlign=middle;whiteSpace=wrap;rounded=0;" vertex="1" parent="1">
          <mxGeometry x="780" y="520" width="60" height="30" as="geometry" />
        </mxCell>
        <mxCell id="DCh-fhXpe_uqELfjKVjP-6" value="address" style="text;html=1;strokeColor=none;fillColor=none;align=center;verticalAlign=middle;whiteSpace=wrap;rounded=0;" vertex="1" parent="1">
          <mxGeometry x="780" y="570" width="60" height="30" as="geometry" />
        </mxCell>
        <mxCell id="DCh-fhXpe_uqELfjKVjP-7" value="$8.50" style="text;html=1;strokeColor=none;fillColor=none;align=center;verticalAlign=middle;whiteSpace=wrap;rounded=0;" vertex="1" parent="1">
          <mxGeometry x="310" y="450" width="60" height="30" as="geometry" />
        </mxCell>
        <mxCell id="DCh-fhXpe_uqELfjKVjP-8" value="delivery" style="text;html=1;strokeColor=none;fillColor=none;align=center;verticalAlign=middle;whiteSpace=wrap;rounded=0;" vertex="1" parent="1">
          <mxGeometry x="850" y="412.5" width="60" height="20" as="geometry" />
        </mxCell>
        <mxCell id="DCh-fhXpe_uqELfjKVjP-9" value="pickup" style="text;html=1;strokeColor=none;fillColor=none;align=center;verticalAlign=middle;whiteSpace=wrap;rounded=0;" vertex="1" parent="1">
          <mxGeometry x="855" y="660" width="60" height="30" as="geometry" />
        </mxCell>
        <mxCell id="DCh-fhXpe_uqELfjKVjP-11" value="name" style="text;html=1;strokeColor=none;fillColor=none;align=center;verticalAlign=middle;whiteSpace=wrap;rounded=0;" vertex="1" parent="1">
          <mxGeometry x="780" y="720" width="60" height="30" as="geometry" />
        </mxCell>
        <mxCell id="DCh-fhXpe_uqELfjKVjP-12" value="extra cost:3$" style="text;html=1;strokeColor=none;fillColor=none;align=center;verticalAlign=middle;whiteSpace=wrap;rounded=0;" vertex="1" parent="1">
          <mxGeometry x="850" y="430" width="60" height="30" as="geometry" />
        </mxCell>
        <mxCell id="DCh-fhXpe_uqELfjKVjP-14" value="gourmet pizza" style="text;html=1;strokeColor=none;fillColor=none;align=center;verticalAlign=middle;whiteSpace=wrap;rounded=0;" vertex="1" parent="1">
          <mxGeometry x="270" y="810" width="140" height="30" as="geometry" />
        </mxCell>
        <mxCell id="DCh-fhXpe_uqELfjKVjP-15" value="$13.50" style="text;html=1;strokeColor=none;fillColor=none;align=center;verticalAlign=middle;whiteSpace=wrap;rounded=0;" vertex="1" parent="1">
          <mxGeometry x="310" y="830" width="60" height="30" as="geometry" />
        </mxCell>
        <mxCell id="DCh-fhXpe_uqELfjKVjP-16" value="" style="rounded=0;whiteSpace=wrap;html=1;" vertex="1" parent="1">
          <mxGeometry x="770" y="660" width="230" height="10" as="geometry" />
        </mxCell>
        <mxCell id="DCh-fhXpe_uqELfjKVjP-17" value="" style="rounded=0;whiteSpace=wrap;html=1;" vertex="1" parent="1">
          <mxGeometry x="580" y="870" width="140" height="30" as="geometry" />
        </mxCell>
        <mxCell id="DCh-fhXpe_uqELfjKVjP-18" value="total cost$" style="text;html=1;strokeColor=none;fillColor=none;align=center;verticalAlign=middle;whiteSpace=wrap;rounded=0;" vertex="1" parent="1">
          <mxGeometry x="620" y="870" width="60" height="30" as="geometry" />
        </mxCell>
        <mxCell id="DCh-fhXpe_uqELfjKVjP-19" value="" style="rounded=0;whiteSpace=wrap;html=1;" vertex="1" parent="1">
          <mxGeometry x="770" y="1040" width="230" height="110" as="geometry" />
        </mxCell>
        <mxCell id="DCh-fhXpe_uqELfjKVjP-20" value="order" style="text;html=1;strokeColor=none;fillColor=none;align=center;verticalAlign=middle;whiteSpace=wrap;rounded=0;" vertex="1" parent="1">
          <mxGeometry x="770" y="1040" width="60" height="30" as="geometry" />
        </mxCell>
      </root>
    </mxGraphModel>
  </diagram>
</mxfile>
